<svg xmlns="http://www.w3.org/2000/svg" width="1200" height="380" viewBox="0 0 1200 380"><rect width="1200" height="380" rx="24" fill="#071219"/><text x="50" y="55" fill="#54f3a3" font-family="monospace" font-size="18" font-weight="bold">INCIDENT TRAINING LOOP · D2 SOURCE IN docs/d2</text><g font-family="Arial" text-anchor="middle"><g fill="#10232d" stroke="#315363"><rect x="40" y="135" width="155" height="90" rx="13"/><rect x="235" y="135" width="155" height="90" rx="13"/><rect x="430" y="135" width="155" height="90" rx="13"/><rect x="625" y="135" width="155" height="90" rx="13"/><rect x="820" y="135" width="155" height="90" rx="13"/><rect x="1015" y="135" width="145" height="90" rx="13"/></g><g fill="#edf7fa" font-size="17" font-weight="bold"><text x="118" y="175">Select</text><text x="118" y="199">Incident</text><text x="312" y="175">Run kubectl</text><text x="312" y="199">Commands</text><text x="508" y="175">Collect</text><text x="508" y="199">Evidence</text><text x="702" y="175">Diagnose</text><text x="702" y="199">Root Cause</text><text x="898" y="175">Rubric</text><text x="898" y="199">Grading</text><text x="1088" y="175">Runbook</text><text x="1088" y="199">Review</text></g></g><g stroke="#54f3a3" stroke-width="3" fill="#54f3a3"><path d="M195 180h35"/><path d="m230 180-10-6v12z"/><path d="M390 180h35"/><path d="m425 180-10-6v12z"/><path d="M585 180h35"/><path d="m620 180-10-6v12z"/><path d="M780 180h35"/><path d="m815 180-10-6v12z"/><path d="M975 180h35"/><path d="m1010 180-10-6v12z"/></g><path d="M1088 230C1080 320 130 330 118 230" fill="none" stroke="#57c7ff" stroke-width="3" stroke-dasharray="8 8"/><path d="m118 230-8 15h16z" fill="#57c7ff"/><text x="600" y="320" text-anchor="middle" fill="#57c7ff" font-family="monospace" font-size="15">Spaced repetition returns weak skills to the practice queue</text></svg>

