<svg xmlns="http://www.w3.org/2000/svg" width="1024" height="1024" viewBox="0 0 1024 1024">
 <defs><linearGradient id="g" x1="0" y1="0" x2="1" y2="1"><stop stop-color="#57c7ff"/><stop offset="1" stop-color="#54f3a3"/></linearGradient><filter id="s"><feDropShadow dx="0" dy="24" stdDeviation="25" flood-opacity=".4"/></filter></defs>
 <rect width="1024" height="1024" rx="220" fill="#061016"/>
 <path d="M512 92 840 224v235c0 229-137 395-328 473C321 854 184 688 184 459V224z" fill="#0d202a" stroke="url(#g)" stroke-width="34" filter="url(#s)"/>
 <circle cx="512" cy="476" r="212" fill="#07151c" stroke="#244957" stroke-width="20"/>
 <path d="M512 294v364M330 476h364M383 347l258 258M641 347 383 605" stroke="url(#g)" stroke-width="32" stroke-linecap="round"/>
 <circle cx="512" cy="476" r="79" fill="#54f3a3"/><path d="M480 434h64v84h-64z" fill="#04110a"/><path d="M463 434c0-65 98-65 98 0" fill="none" stroke="#04110a" stroke-width="25"/>
 <text x="512" y="792" text-anchor="middle" fill="#eaf7fb" font-family="Arial,sans-serif" font-size="86" font-weight="800">DEPLOY</text>
</svg>

